<svg xmlns="http://www.w3.org/2000/svg" xmlns:xlink="http://www.w3.org/1999/xlink" width="86" zoomAndPan="magnify" viewBox="0 0 64.5 63.749998" height="85" preserveAspectRatio="xMidYMid meet" version="1.0"><defs><clipPath id="39d0c663fe"><path d="M 6 6 L 30 6 L 30 39 L 6 39 Z M 6 6 " clip-rule="nonzero"/></clipPath><clipPath id="2fb9ab5e85"><path d="M 22.273438 0.121094 L 44.585938 22.429688 L 22.273438 44.742188 L -0.0351562 22.429688 Z M 22.273438 0.121094 " clip-rule="nonzero"/></clipPath><clipPath id="650a58e19b"><path d="M 22.273438 0.121094 L 44.585938 22.429688 L 22.273438 44.742188 L -0.0351562 22.429688 Z M 22.273438 0.121094 " clip-rule="nonzero"/></clipPath><clipPath id="1bb67c7a30"><path d="M 6 32 L 39 32 L 39 56 L 6 56 Z M 6 32 " clip-rule="nonzero"/></clipPath><clipPath id="4c7ded834c"><path d="M 0 40.449219 L 22.308594 18.140625 L 44.621094 40.449219 L 22.308594 62.761719 Z M 0 40.449219 " clip-rule="nonzero"/></clipPath><clipPath id="bc9093b081"><path d="M 0 40.449219 L 22.308594 18.140625 L 44.621094 40.449219 L 22.308594 62.761719 Z M 0 40.449219 " clip-rule="nonzero"/></clipPath><clipPath id="c8333cb32e"><path d="M 33 24 L 57 24 L 57 57 L 33 57 Z M 33 24 " clip-rule="nonzero"/></clipPath><clipPath id="0b67f96d34"><path d="M 41.273438 62.726562 L 18.960938 40.414062 L 41.273438 18.105469 L 63.582031 40.414062 Z M 41.273438 62.726562 " clip-rule="nonzero"/></clipPath><clipPath id="281e750d51"><path d="M 41.273438 62.726562 L 18.960938 40.414062 L 41.273438 18.105469 L 63.582031 40.414062 Z M 41.273438 62.726562 " clip-rule="nonzero"/></clipPath><clipPath id="f9878c98a1"><path d="M 24 6 L 58 6 L 58 31 L 24 31 Z M 24 6 " clip-rule="nonzero"/></clipPath><clipPath id="77fec637a0"><path d="M 63.546875 22.394531 L 41.238281 44.707031 L 18.925781 22.394531 L 41.238281 0.0859375 Z M 63.546875 22.394531 " clip-rule="nonzero"/></clipPath><clipPath id="ed33e9d816"><path d="M 63.546875 22.394531 L 41.238281 44.707031 L 18.925781 22.394531 L 41.238281 0.0859375 Z M 63.546875 22.394531 " clip-rule="nonzero"/></clipPath></defs><g clip-path="url(#39d0c663fe)"><g clip-path="url(#2fb9ab5e85)"><g clip-path="url(#650a58e19b)"><path fill="#7272a0" d="M 29.3125 35.457031 C 27.644531 34.761719 26.125 33.742188 24.808594 32.421875 C 19.277344 26.894531 19.277344 17.898438 24.808594 12.367188 C 26.125 11.050781 27.644531 10.03125 29.3125 9.335938 C 29.699219 9.183594 29.957031 8.800781 29.957031 8.371094 C 29.957031 7.957031 29.699219 7.574219 29.316406 7.414062 C 23.191406 4.824219 16.203125 6.191406 11.503906 10.890625 C 5.164062 17.234375 5.164062 27.558594 11.503906 33.902344 C 16.203125 38.597656 23.191406 39.964844 29.316406 37.378906 C 29.699219 37.21875 29.957031 36.835938 29.949219 36.414062 C 29.957031 35.988281 29.699219 35.609375 29.3125 35.457031 Z M 29.3125 35.457031 " fill-opacity="1" fill-rule="nonzero"/></g></g></g><g clip-path="url(#1bb67c7a30)"><g clip-path="url(#4c7ded834c)"><g clip-path="url(#bc9093b081)"><path fill="#7272a0" d="M 35.335938 33.414062 C 34.640625 35.078125 33.621094 36.597656 32.300781 37.917969 C 26.773438 43.449219 17.777344 43.449219 12.246094 37.917969 C 10.929688 36.597656 9.910156 35.078125 9.214844 33.414062 C 9.0625 33.023438 8.679688 32.769531 8.25 32.769531 C 7.835938 32.769531 7.453125 33.023438 7.292969 33.40625 C 4.703125 39.535156 6.070312 46.523438 10.769531 51.21875 C 17.113281 57.5625 27.4375 57.5625 33.78125 51.21875 C 38.476562 46.523438 39.84375 39.535156 37.257812 33.40625 C 37.097656 33.023438 36.714844 32.769531 36.292969 32.773438 C 35.867188 32.769531 35.488281 33.023438 35.335938 33.414062 Z M 35.335938 33.414062 " fill-opacity="1" fill-rule="nonzero"/></g></g></g><g clip-path="url(#c8333cb32e)"><g clip-path="url(#0b67f96d34)"><g clip-path="url(#281e750d51)"><path fill="#7272a0" d="M 34.234375 27.390625 C 35.902344 28.085938 37.421875 29.105469 38.738281 30.421875 C 44.269531 35.953125 44.269531 44.945312 38.738281 50.476562 C 37.421875 51.796875 35.902344 52.816406 34.234375 53.507812 C 33.847656 53.664062 33.589844 54.042969 33.589844 54.472656 C 33.589844 54.890625 33.847656 55.273438 34.230469 55.429688 C 40.355469 58.019531 47.34375 56.652344 52.042969 51.957031 C 58.382812 45.613281 58.382812 35.289062 52.042969 28.945312 C 47.34375 24.246094 40.355469 22.878906 34.230469 25.46875 C 33.847656 25.628906 33.589844 26.007812 33.597656 26.433594 C 33.589844 26.855469 33.847656 27.238281 34.234375 27.390625 Z M 34.234375 27.390625 " fill-opacity="1" fill-rule="nonzero"/></g></g></g><g clip-path="url(#f9878c98a1)"><g clip-path="url(#77fec637a0)"><g clip-path="url(#ed33e9d816)"><path fill="#7272a0" d="M 28.210938 29.433594 C 28.90625 27.765625 29.925781 26.246094 31.246094 24.929688 C 36.777344 19.398438 45.769531 19.398438 51.300781 24.929688 C 52.617188 26.246094 53.636719 27.765625 54.332031 29.433594 C 54.484375 29.820312 54.867188 30.078125 55.296875 30.078125 C 55.710938 30.078125 56.09375 29.820312 56.253906 29.4375 C 58.84375 23.3125 57.476562 16.324219 52.777344 11.625 C 46.433594 5.285156 36.109375 5.285156 29.765625 11.625 C 25.070312 16.324219 23.703125 23.3125 26.289062 29.4375 C 26.449219 29.820312 26.832031 30.078125 27.253906 30.070312 C 27.679688 30.078125 28.058594 29.820312 28.210938 29.433594 Z M 28.210938 29.433594 " fill-opacity="1" fill-rule="nonzero"/></g></g></g></svg>